<svg width="24" height="24" viewBox="0 0 24 24" fill="none" xmlns="http://www.w3.org/2000/svg">
<mask id="mask0_17_135" style="mask-type:alpha" maskUnits="userSpaceOnUse" x="0" y="0" width="24" height="24">
<rect width="24" height="24" fill="#D9D9D9"/>
</mask>
<g mask="url(#mask0_17_135)">
<path d="M2 12C2 10.6167 2.2625 9.31667 2.7875 8.1C3.3125 6.88333 4.025 5.825 4.925 4.925C5.825 4.025 6.88333 3.3125 8.1 2.7875C9.31667 2.2625 10.6167 2 12 2C12.45 2 12.8917 2.02917 13.325 2.0875C13.7583 2.14583 14.1833 2.23333 14.6 2.35C14.3333 2.6 14.0958 2.875 13.8875 3.175C13.6792 3.475 13.5083 3.79167 13.375 4.125C13.1417 4.09167 12.9125 4.0625 12.6875 4.0375C12.4625 4.0125 12.2333 4 12 4C9.76667 4 7.875 4.775 6.325 6.325C4.775 7.875 4 9.76667 4 12C4 14.2333 4.775 16.125 6.325 17.675C7.875 19.225 9.76667 20 12 20C14.2333 20 16.125 19.225 17.675 17.675C19.225 16.125 20 14.2333 20 12C20 11.7667 19.9875 11.5375 19.9625 11.3125C19.9375 11.0875 19.9083 10.8583 19.875 10.625C20.2083 10.4917 20.525 10.3208 20.825 10.1125C21.125 9.90417 21.4 9.66667 21.65 9.4C21.7667 9.81667 21.8542 10.2417 21.9125 10.675C21.9708 11.1083 22 11.55 22 12C22 13.3833 21.7375 14.6833 21.2125 15.9C20.6875 17.1167 19.975 18.175 19.075 19.075C18.175 19.975 17.1167 20.6875 15.9 21.2125C14.6833 21.7375 13.3833 22 12 22C10.6167 22 9.31667 21.7375 8.1 21.2125C6.88333 20.6875 5.825 19.975 4.925 19.075C4.025 18.175 3.3125 17.1167 2.7875 15.9C2.2625 14.6833 2 13.3833 2 12ZM18 9C17.1667 9 16.4583 8.70833 15.875 8.125C15.2917 7.54167 15 6.83333 15 6C15 5.16667 15.2917 4.45833 15.875 3.875C16.4583 3.29167 17.1667 3 18 3C18.8333 3 19.5417 3.29167 20.125 3.875C20.7083 4.45833 21 5.16667 21 6C21 6.83333 20.7083 7.54167 20.125 8.125C19.5417 8.70833 18.8333 9 18 9Z" fill="white"/>
</g>
</svg>
