<svg width="234" height="232" viewBox="0 0 234 232" fill="none" xmlns="http://www.w3.org/2000/svg">
<path d="M191.967 115.935C191.967 157.261 158.264 190.839 116.593 190.839C74.921 190.839 41.2181 157.261 41.2181 115.935C41.2181 74.6104 74.921 41.0315 116.593 41.0315C158.264 41.0315 191.967 74.6104 191.967 115.935Z" stroke="#5B93FF" stroke-opacity="0.05" stroke-width="16.2687"/>
<path d="M81.9484 181.1C79.527 185.655 73.8262 187.443 69.5586 184.55C62.5486 179.799 56.2921 174.003 51.0168 167.35C43.8069 158.257 38.589 147.766 35.6983 136.549C32.8076 125.332 32.308 113.639 34.2316 102.219C35.636 93.8806 38.3096 85.823 42.1447 78.3182C44.4981 73.7129 50.3716 72.5334 54.6956 75.3674V75.3674C59.0232 78.2038 60.1418 83.9847 57.9397 88.6683C55.4615 93.9393 53.707 99.5333 52.7356 105.3C51.2442 114.155 51.6316 123.221 53.8728 131.918C56.1141 140.615 60.1596 148.749 65.7498 155.799C69.4042 160.407 73.666 164.486 78.4093 167.93C82.5803 170.959 84.3698 176.546 81.9484 181.1V181.1Z" fill="#FF8F6B"/>
<path d="M174.113 159.624C178.997 163.333 179.974 170.349 175.619 174.676C162.94 187.274 146.437 195.556 128.501 198.125C110.552 200.697 92.355 197.377 76.6071 188.837C71.2212 185.916 70.1813 178.923 73.8135 173.993V173.993C77.4457 169.064 84.3735 168.096 89.895 170.755C100.818 176.015 113.15 177.966 125.327 176.222C137.492 174.479 148.758 169.155 157.738 161.057C162.299 156.946 169.229 155.915 174.113 159.624V159.624Z" fill="#FFD66B"/>
<g filter="url(#filter0_d_17_69)">
<path d="M116.593 47.376C116.593 39.3796 123.122 32.7701 131 34.1422C143.206 36.2682 154.846 41.0803 165.038 48.2983C179.183 58.316 189.836 72.4696 195.513 88.789C201.19 105.108 201.61 122.782 196.713 139.349C193.184 151.29 187.02 162.229 178.74 171.402C173.391 177.327 164.195 176.166 159.245 169.903V169.903C154.257 163.592 155.562 154.505 160.356 148.044C164.109 142.986 166.969 137.286 168.773 131.184C171.962 120.394 171.689 108.884 167.991 98.2557C164.294 87.6273 157.356 78.4095 148.144 71.8853C142.892 68.1662 137.051 65.4278 130.903 63.7606C123.185 61.6675 116.593 55.3725 116.593 47.376V47.376Z" fill="#2332D7"/>
</g>
<defs>
<filter id="filter0_d_17_69" x="112.254" y="33.9609" width="92.1854" height="149.993" filterUnits="userSpaceOnUse" color-interpolation-filters="sRGB">
<feFlood flood-opacity="0" result="BackgroundImageFix"/>
<feColorMatrix in="SourceAlpha" type="matrix" values="0 0 0 0 0 0 0 0 0 0 0 0 0 0 0 0 0 0 127 0" result="hardAlpha"/>
<feOffset dy="4.33833"/>
<feGaussianBlur stdDeviation="2.16916"/>
<feColorMatrix type="matrix" values="0 0 0 0 0.356863 0 0 0 0 0.576471 0 0 0 0 1 0 0 0 0.24 0"/>
<feBlend mode="normal" in2="BackgroundImageFix" result="effect1_dropShadow_17_69"/>
<feBlend mode="normal" in="SourceGraphic" in2="effect1_dropShadow_17_69" result="shape"/>
</filter>
</defs>
</svg>
