<svg width="5" height="17" viewBox="0 0 5 17" fill="none" xmlns="http://www.w3.org/2000/svg">
<path d="M0.137004 1.719C0.137004 2.64283 1.07314 3.39174 2.22793 3.39174C3.38271 3.39174 4.31885 2.64283 4.31885 1.719C4.31885 0.795175 3.38271 0.0462646 2.22793 0.0462646C1.07314 0.0462645 0.137004 0.795175 0.137004 1.719Z" fill="#575757" fill-opacity="0.5"/>
<path d="M0.137004 8.40992C0.137004 9.33375 1.07314 10.0827 2.22793 10.0827C3.38271 10.0827 4.31885 9.33375 4.31885 8.40992C4.31885 7.48609 3.38271 6.73718 2.22793 6.73718C1.07314 6.73718 0.137004 7.48609 0.137004 8.40992Z" fill="#575757" fill-opacity="0.5"/>
<path d="M0.137004 15.1008C0.137004 16.0247 1.07314 16.7736 2.22793 16.7736C3.38271 16.7736 4.31885 16.0247 4.31885 15.1008C4.31885 14.177 3.38271 13.4281 2.22793 13.4281C1.07314 13.4281 0.137004 14.177 0.137004 15.1008Z" fill="#575757" fill-opacity="0.5"/>
</svg>
