<svg width="20" height="27" viewBox="0 0 20 27" fill="none" xmlns="http://www.w3.org/2000/svg">
<path d="M16 1.67725C16.5304 1.67725 17.0391 1.84845 17.4142 2.1532C17.7893 2.45794 18 2.87127 18 3.30225V22.8022C18 23.2332 17.7893 23.6465 17.4142 23.9513C17.0391 24.256 16.5304 24.4272 16 24.4272H4C3.46957 24.4272 2.96086 24.256 2.58579 23.9513C2.21071 23.6465 2 23.2332 2 22.8022V3.30225C2 2.87127 2.21071 2.45794 2.58579 2.1532C2.96086 1.84845 3.46957 1.67725 4 1.67725H16ZM4 0.0522461C2.93913 0.0522461 1.92172 0.394656 1.17157 1.00415C0.421427 1.61364 0 2.44029 0 3.30225V22.8022C0 23.6642 0.421427 24.4908 1.17157 25.1003C1.92172 25.7098 2.93913 26.0522 4 26.0522H16C17.0609 26.0522 18.0783 25.7098 18.8284 25.1003C19.5786 24.4908 20 23.6642 20 22.8022V3.30225C20 2.44029 19.5786 1.61364 18.8284 1.00415C18.0783 0.394656 17.0609 0.0522461 16 0.0522461L4 0.0522461Z" fill="#2A2354"/>
<path d="M10 22.8022C10.5304 22.8022 11.0391 22.631 11.4142 22.3263C11.7893 22.0215 12 21.6082 12 21.1772C12 20.7463 11.7893 20.3329 11.4142 20.0282C11.0391 19.7235 10.5304 19.5522 10 19.5522C9.46957 19.5522 8.96086 19.7235 8.58579 20.0282C8.21071 20.3329 8 20.7463 8 21.1772C8 21.6082 8.21071 22.0215 8.58579 22.3263C8.96086 22.631 9.46957 22.8022 10 22.8022Z" fill="#2A2354"/>
</svg>
