<svg width="99" height="27" viewBox="0 0 99 27" fill="none" xmlns="http://www.w3.org/2000/svg">
<path d="M88.1707 12.8261L85.1293 11.4069C84.8639 11.2837 84.6458 11.4218 84.6458 11.7157V14.3888C84.6458 14.6827 84.8639 14.8208 85.1293 14.6976L88.1694 13.2784C88.4361 13.1538 88.4361 12.9507 88.1707 12.8261ZM86 0.0522461C78.8202 0.0522461 73 5.87245 73 13.0522C73 20.232 78.8202 26.0522 86 26.0522C93.1798 26.0522 99 20.232 99 13.0522C99 5.87245 93.1798 0.0522461 86 0.0522461ZM86 18.3335C79.3456 18.3335 79.2292 17.7336 79.2292 13.0522C79.2292 8.37089 79.3456 7.771 86 7.771C92.6544 7.771 92.7708 8.37089 92.7708 13.0522C92.7708 17.7336 92.6544 18.3335 86 18.3335Z" fill="#2A2354"/>
<path d="M49 0.0522461C41.821 0.0522461 36 5.87323 36 13.0522C36 20.2313 41.821 26.0522 49 26.0522C56.179 26.0522 62 20.2313 62 13.0522C62 5.87323 56.179 0.0522461 49 0.0522461ZM55.2475 9.85158C55.2562 9.98796 55.2562 10.1301 55.2562 10.2694C55.2562 14.5293 52.0121 19.4362 46.0837 19.4362C44.2556 19.4362 42.5609 18.9051 41.1333 17.9911C41.3944 18.0201 41.644 18.0317 41.9109 18.0317C43.4199 18.0317 44.8069 17.521 45.9125 16.6563C44.4964 16.6272 43.3067 15.6987 42.9004 14.4219C43.3967 14.4944 43.8435 14.4944 44.3542 14.3639C43.6251 14.2157 42.9697 13.8197 42.4995 13.2431C42.0292 12.6666 41.7731 11.9449 41.7746 11.2009V11.1603C42.2011 11.4011 42.7031 11.5491 43.2283 11.5694C42.7868 11.2752 42.4247 10.8765 42.1742 10.4088C41.9236 9.94109 41.7923 9.41878 41.792 8.88818C41.792 8.28751 41.9487 7.73908 42.2301 7.26318C43.0394 8.25947 44.0494 9.07431 45.1942 9.65474C46.3391 10.2352 47.5932 10.5682 48.8752 10.6322C48.4196 8.44131 50.0562 6.66832 52.0237 6.66832C52.9522 6.66832 53.7879 7.05716 54.377 7.68394C55.1054 7.54756 55.8018 7.27479 56.4228 6.90917C56.1819 7.65492 55.677 8.28461 55.0067 8.68216C55.6567 8.61251 56.2835 8.4326 56.8638 8.18015C56.4257 8.82434 55.8772 9.396 55.2475 9.85158Z" fill="#2A2354"/>
<path d="M26 13.0848C26 5.89084 20.176 0.0522461 13 0.0522461C5.824 0.0522461 0 5.89084 0 13.0848C0 19.3926 4.472 24.6447 10.4 25.8568V16.9946H7.8V13.0848H10.4V9.82668C10.4 7.31139 12.441 5.26528 14.95 5.26528H18.2V9.17505H15.6C14.885 9.17505 14.3 9.76152 14.3 10.4783V13.0848H18.2V16.9946H14.3V26.0522C20.865 25.4006 26 19.8487 26 13.0848Z" fill="#2A2354"/>
</svg>
