<svg width="24" height="24" viewBox="0 0 24 24" fill="none" xmlns="http://www.w3.org/2000/svg">
<path d="M12 14C13.1046 14 14 13.1046 14 12C14 10.8954 13.1046 10 12 10C10.8954 10 10 10.8954 10 12C10 13.1046 10.8954 14 12 14Z" stroke="white" stroke-width="1.5"/>
<path d="M5.39899 5.88004L5.77399 5.23004C5.62676 5.1451 5.45504 5.1127 5.28698 5.13813C5.11893 5.16357 4.96449 5.24534 4.84899 5.37004L5.39899 5.88004ZM3.39999 9.34404L2.68299 9.12204C2.63283 9.28449 2.63936 9.45916 2.7015 9.61741C2.76363 9.77567 2.8777 9.90811 3.02499 9.99304L3.39999 9.34404ZM3.39799 14.655L3.02299 14.005C2.87567 14.0902 2.76167 14.2228 2.6997 14.3813C2.63774 14.5397 2.63149 14.7146 2.68199 14.877L3.39799 14.655ZM5.39799 18.119L4.84799 18.629C4.96349 18.7537 5.11793 18.8355 5.28598 18.8609C5.45404 18.8864 5.62576 18.854 5.77299 18.769L5.39799 18.119ZM9.99799 20.774H9.24799C9.24799 21.124 9.49099 21.427 9.83199 21.505L9.99799 20.774ZM13.999 20.776L14.166 21.508C14.3318 21.4702 14.4797 21.3771 14.5857 21.2441C14.6916 21.1111 14.7492 20.9461 14.749 20.776H13.999ZM18.6 18.12L18.225 18.77C18.3722 18.855 18.5439 18.8874 18.712 18.8619C18.8801 18.8365 19.0345 18.7547 19.15 18.63L18.6 18.12ZM20.598 14.654L21.315 14.876C21.3651 14.7136 21.3586 14.5389 21.2965 14.3807C21.2343 14.2224 21.1203 14.09 20.973 14.005L20.598 14.654ZM20.6 9.34304L20.975 9.99304C21.1223 9.90792 21.2363 9.77524 21.2983 9.61678C21.3602 9.45833 21.3665 9.28351 21.316 9.12104L20.6 9.34304ZM18.6 5.87804L19.15 5.36904C19.0345 5.24434 18.8801 5.16257 18.712 5.13713C18.5439 5.1117 18.3722 5.1441 18.225 5.22904L18.6 5.87804ZM14 3.22504H14.75C14.7499 3.05518 14.6923 2.89036 14.5863 2.75757C14.4804 2.62477 14.3326 2.53186 14.167 2.49404L14 3.22504ZM9.99999 3.22304L9.83299 2.49104C9.66723 2.5289 9.51925 2.62196 9.41332 2.75496C9.30739 2.88796 9.2498 3.05301 9.24999 3.22304H9.99999ZM4.11699 9.56604C4.48095 8.38295 5.10678 7.29707 5.94799 6.38904L4.84799 5.36904C3.85393 6.44201 3.1143 7.72509 2.68399 9.12304L4.11699 9.56604ZM4.85499 16.125C4.54613 15.591 4.29792 15.0242 4.11499 14.435L2.68299 14.878C2.89868 15.5742 3.19149 16.244 3.55599 16.875L4.85499 16.125ZM5.94899 17.611C5.53009 17.158 5.16315 16.6596 4.85499 16.125L3.55599 16.875C3.91993 17.5063 4.35329 18.094 4.84799 18.629L5.94899 17.611ZM13.833 20.046C12.6263 20.3207 11.3733 20.32 10.167 20.044L9.83299 21.506C11.2591 21.8325 12.7404 21.8335 14.167 21.509L13.833 20.046ZM19.883 14.434C19.519 15.6171 18.8932 16.703 18.052 17.611L19.152 18.631C20.146 17.5581 20.8857 16.275 21.316 14.877L19.883 14.434ZM19.145 7.87504C19.46 8.42204 19.705 8.98804 19.885 9.56504L21.317 9.12204C21.1013 8.42592 20.8085 7.75609 20.444 7.12504L19.145 7.87504ZM18.05 6.38904C18.46 6.83204 18.828 7.32904 19.144 7.87504L20.444 7.12504C20.0797 6.49367 19.6451 5.90402 19.15 5.36904L18.05 6.38904ZM10.166 3.95404C11.3726 3.67941 12.6256 3.68009 13.832 3.95604L14.167 2.49404C12.7409 2.16755 11.2585 2.16653 9.83199 2.49104L10.166 3.95404ZM10.749 5.07204V3.22204H9.24899V5.07204H10.749ZM7.37499 6.15404L5.77399 5.23004L5.02399 6.52904L6.62399 7.45304L7.37499 6.15404ZM4.62499 13.083L3.02399 14.007L3.77399 15.306L5.37499 14.382L4.62499 13.083ZM5.37499 9.61804L3.77499 8.69504L3.02499 9.99504L4.62499 10.918L5.37499 9.61804ZM10.75 20.775V18.928H9.24999V20.775H10.75ZM6.62499 16.547L5.02399 17.471L5.77399 18.771L7.37399 17.846L6.62499 16.547ZM18.976 17.471L17.375 16.547L16.625 17.846L18.225 18.77L18.976 17.471ZM14.75 20.777V18.928H13.25V20.778L14.75 20.777ZM20.226 8.69404L18.625 9.61804L19.375 10.918L20.975 9.99304L20.226 8.69404ZM20.974 14.006L19.375 13.082L18.625 14.382L20.225 15.305L20.974 14.006ZM14.75 5.07204V3.22504H13.25V5.07204H14.75ZM18.226 5.23004L16.625 6.15404L17.375 7.45404L18.976 6.52904L18.226 5.23004ZM13.25 5.07204C13.25 7.18904 15.542 8.51304 17.375 7.45404L16.625 6.15404C16.435 6.26372 16.2195 6.32148 16.0001 6.32151C15.7807 6.32153 15.5652 6.26382 15.3752 6.15417C15.1852 6.04452 15.0274 5.8868 14.9177 5.69685C14.8079 5.5069 14.7501 5.29141 14.75 5.07204H13.25ZM18.625 9.61804C16.792 10.677 16.792 13.323 18.625 14.382L19.375 13.082C19.185 12.9723 19.0272 12.8145 18.9175 12.6245C18.8078 12.4345 18.75 12.2189 18.75 11.9995C18.75 11.7801 18.8078 11.5646 18.9175 11.3746C19.0272 11.1845 19.185 11.0268 19.375 10.917L18.625 9.61804ZM17.375 16.547C15.542 15.488 13.25 16.811 13.25 18.928H14.75C14.7501 18.7087 14.8079 18.4932 14.9177 18.3032C15.0274 18.1133 15.1852 17.9556 15.3752 17.8459C15.5652 17.7363 15.7807 17.6785 16.0001 17.6786C16.2195 17.6786 16.435 17.7363 16.625 17.846L17.375 16.547ZM10.75 18.928C10.75 16.811 8.45799 15.488 6.62499 16.547L7.37399 17.846C7.56397 17.7363 7.78048 17.6786 7.99986 17.6786C8.21923 17.6785 8.43475 17.7363 8.62476 17.8459C8.81477 17.9556 8.97257 18.1133 9.08232 18.3032C9.19207 18.4932 9.2499 18.7087 9.24999 18.928H10.75ZM5.37499 14.382C7.20799 13.323 7.20799 10.677 5.37499 9.61804L4.62499 10.918C4.815 11.0278 4.97278 11.1855 5.08248 11.3756C5.19218 11.5656 5.24993 11.7811 5.24993 12.0005C5.24993 12.2199 5.19218 12.4355 5.08248 12.6255C4.97278 12.8155 4.815 12.9733 4.62499 13.083L5.37499 14.382ZM9.24999 5.07204C9.2499 5.29141 9.19207 5.5069 9.08232 5.69685C8.97257 5.8868 8.81477 6.04452 8.62476 6.15417C8.43475 6.26382 8.21923 6.32153 7.99986 6.32151C7.78048 6.32148 7.56497 6.26372 7.37499 6.15404L6.62499 7.45404C8.45799 8.51204 10.75 7.18904 10.75 5.07204H9.24999Z" fill="white"/>
</svg>
