<svg width="88" height="84" viewBox="0 0 88 84" fill="none" xmlns="http://www.w3.org/2000/svg">
<path fill-rule="evenodd" clip-rule="evenodd" d="M15.4725 51.0429C14.8345 50.3222 13.8042 49.9662 12.7804 50.1927L5.26973 51.8555C4.53993 52.0171 3.91356 52.4582 3.53891 53.074C3.16425 53.6891 3.07514 54.4246 3.29239 55.1051L9.16717 73.4925C9.5815 74.7894 10.9858 75.5581 12.3771 75.2503L19.8877 73.5875C20.6175 73.4258 21.2439 72.9847 21.6185 72.3696C21.8072 72.0592 21.9236 71.7193 21.9652 71.3707C26.7239 71.3534 35.4879 71.2541 42.2577 70.7913C46.9408 70.4717 50.7466 69.8628 52.1274 69.1557C55.5884 67.3837 66.5776 60.1372 69.7849 55.7122C71.3545 53.5478 71.3239 51.6074 70.5076 50.3698C69.5124 48.8618 68.3377 47.9709 66.9868 47.5144C65.7112 47.0831 64.2146 47.035 62.394 47.4884C60.9598 47.8457 59.2218 48.5774 57.0708 49.6312C56.7169 48.9698 56.1777 48.3349 55.4187 47.7544C54.9282 47.3798 54.002 46.9301 52.6907 46.7055C50.6464 46.3557 47.3343 46.439 43.8506 47.9777C42.445 48.5984 41.256 48.1745 39.9831 47.6927C38.5976 47.1688 37.155 46.5105 35.5256 46.0459C31.7303 44.9637 27.1135 45.8195 22.9598 47.3959C20.0529 48.4997 17.3855 49.9194 15.4725 51.0429ZM11.5393 55.7474L11.5484 55.7745L15.8394 69.2044C15.8394 69.2038 13.6181 69.6962 13.6181 69.6962L9.31872 56.2391L11.5393 55.7474ZM43.5403 56.7463C46.1434 55.3858 50.7088 52.9253 50.8077 52.8747C51.1817 52.6834 51.5063 52.4761 51.7697 52.2509C51.8887 52.1498 52.0188 51.9893 52.1034 51.8758C51.4744 51.8135 48.511 51.5908 46.1382 52.6384C43.5982 53.7601 41.3724 53.5793 39.103 52.863C37.5023 52.3577 35.8742 51.5136 33.9652 50.9701C31.2405 50.1933 27.9564 51.0373 24.9742 52.1695C21.8078 53.3714 18.9634 54.9965 17.2944 56.0331L20.5538 66.2324C24.7016 66.2306 34.4908 66.1676 41.868 65.6636C45.4962 65.4155 48.483 65.1792 49.5524 64.6313C52.2809 63.2345 60.2384 58.1049 64.1203 54.1722C64.6413 53.6441 65.5096 52.863 65.1668 52.3571C64.7265 51.7086 63.4776 52.4774 62.1735 52.9913C60.0615 53.8236 57.396 55.2328 53.9409 57.0936C53.7613 57.1985 53.319 57.4311 53.2872 57.4459C51.2032 58.5695 48.8414 59.846 46.1551 61.2496C44.9537 61.8771 43.2431 62.1437 41.4179 62.0702C39.278 61.9845 36.9663 61.4804 35.6193 61.1164C34.1811 60.7277 33.346 59.3043 33.7558 57.9395C34.1655 56.5748 35.6661 55.7832 37.1049 56.1719C38.1605 56.4569 39.9701 56.866 41.6475 56.9332C42.3689 56.9622 43.0655 56.9943 43.5403 56.7463ZM65.6917 12.4246C60.9331 12.4419 52.1684 12.5412 45.3993 13.004C40.7155 13.3242 36.9097 13.9325 35.5289 14.6396C32.0679 16.4122 21.0787 23.6587 17.8714 28.0831C16.3018 30.2481 16.3324 32.1879 17.1487 33.4255C18.1439 34.9334 19.3192 35.8244 20.6696 36.2809C21.9457 36.7128 23.4417 36.7603 25.2623 36.3068C26.6965 35.9502 28.4345 35.2185 30.5855 34.1641C30.9394 34.8255 31.4786 35.461 32.2376 36.0409C32.7281 36.416 33.6549 36.8652 34.9662 37.0898C37.0106 37.4402 40.322 37.3569 43.8064 35.8182C45.2113 35.1975 46.401 35.6214 47.6732 36.1026C49.0587 36.6271 50.5013 37.2854 52.1313 37.75C55.9267 38.8315 60.5428 37.9764 64.6965 36.3994C67.604 35.2956 70.2715 33.8765 72.1838 32.7524C72.8219 33.473 73.8528 33.8296 74.8759 33.6026L82.3866 31.9398C83.1164 31.7782 83.7427 31.337 84.1174 30.7219C84.4921 30.1061 84.5818 29.3707 84.3646 28.6908L78.4891 10.3028C78.0748 9.00591 76.6705 8.23715 75.2792 8.54502L67.7686 10.2078C67.0388 10.3694 66.4124 10.8106 66.0378 11.4263C65.8491 11.7361 65.7327 12.0766 65.6917 12.4246ZM67.1032 17.5629C62.9547 17.5647 53.1655 17.6283 45.7889 18.1323C42.1607 18.3804 39.1739 18.6161 38.104 19.1639C35.3754 20.5614 27.4179 25.691 23.536 29.623C23.015 30.1512 22.1467 30.9323 22.4901 31.4382C22.9298 32.0873 24.1787 31.3179 25.4828 30.804C27.5948 29.9723 30.2603 28.5625 33.7161 26.7016C33.895 26.5967 34.081 26.4949 34.2742 26.3962C34.3054 26.3802 34.3373 26.3648 34.3691 26.3499C36.4531 25.2258 38.8149 23.9493 41.5012 22.5456C42.7026 21.9182 44.4132 21.6516 46.2384 21.725C48.3783 21.8114 50.6906 22.3149 52.037 22.6789C53.4758 23.0676 54.311 24.4916 53.9005 25.8557C53.4908 27.2205 51.9902 28.0127 50.5514 27.624C49.4958 27.3384 47.6862 26.9293 46.0088 26.862C45.2881 26.833 44.5914 26.8016 44.1166 27.0496C41.5129 28.4094 39.1973 29.6508 37.1302 30.7546C37.0411 30.8144 36.9475 30.87 36.8493 30.9206C36.4746 31.1124 36.15 31.3198 35.8866 31.5443C35.7682 31.6455 35.6375 31.8066 35.5529 31.9195C36.1825 31.9824 39.1453 32.2051 41.5181 31.1569C44.0581 30.0352 46.2839 30.216 48.5533 30.9323C50.154 31.4382 51.7827 32.2816 53.6911 32.8258C56.4164 33.6026 59.7005 32.7579 62.6828 31.6258C65.8485 30.4239 68.6929 28.7988 70.3619 27.7628L67.1032 17.5629ZM76.1176 28.0479L76.1085 28.0207L71.8176 14.5915L74.0382 14.0997L78.3382 27.5562L76.1176 28.0479Z" fill="#24BB83"/>
</svg>
