<svg width="88" height="84" viewBox="0 0 88 84" fill="none" xmlns="http://www.w3.org/2000/svg">
<path fill-rule="evenodd" clip-rule="evenodd" d="M52.7262 12.0483C48.5581 14.3509 40.8797 18.6716 35.1597 22.3476C31.2187 24.881 28.202 27.2434 27.3675 28.528C25.2743 31.7511 19.4926 43.4065 19.0405 48.8378C18.8207 51.4761 19.8731 53.1561 21.2429 53.8459C22.9152 54.6881 24.4164 54.9046 25.8402 54.6572C26.851 54.482 27.8546 54.0569 28.8641 53.3196C29.7916 54.8855 31.0548 56.249 32.5606 57.3226H10.8755C9.37823 57.3226 8.16516 58.4733 8.16516 59.8929V72.7472C8.16516 74.7925 9.02179 76.7539 10.5464 78.2007C12.0711 79.6469 14.1395 80.4595 16.2957 80.4595C27.6341 80.4595 53.7402 80.4595 65.0787 80.4595C67.2349 80.4595 69.3033 79.6469 70.8279 78.2007C72.3525 76.7539 73.2092 74.7925 73.2092 72.7472V59.8929C73.2092 58.4733 71.9961 57.3226 70.4988 57.3226H48.8151C52.1069 54.9762 54.2378 51.2422 54.2378 47.0393C54.2378 44.8928 53.6823 42.8685 52.7001 41.0891C53.2238 41.0108 53.7552 40.917 54.2931 40.7967C58.2016 39.9218 61.7952 36.951 64.598 33.5712C66.5727 31.1896 68.1637 28.6439 69.2441 26.7331C70.184 27.0706 71.2813 26.8942 72.0572 26.2044L77.7727 21.1241C78.319 20.6386 78.6293 19.9593 78.6293 19.2485C78.6293 18.5377 78.319 17.8584 77.7727 17.3729L62.7631 4.03121C61.7205 3.1045 60.0989 3.1045 59.0562 4.03121L53.3415 9.11084C52.7945 9.59703 52.4842 10.2763 52.4842 10.9871C52.4842 11.3573 52.5688 11.7182 52.7262 12.0483ZM24.4262 62.4639H13.5853V72.7472C13.5853 73.429 13.8708 74.083 14.3795 74.5648C14.8875 75.0467 15.5769 75.3176 16.2957 75.3176H65.0787C65.7974 75.3176 66.4869 75.0467 66.9949 74.5648C67.5035 74.083 67.7891 73.429 67.7891 72.7472V62.4639H56.9482V63.7269C56.9482 65.4372 56.232 67.0777 54.9565 68.287C53.6817 69.4969 51.9521 70.1762 50.1491 70.1762C45.0367 70.1762 36.3377 70.1762 31.2252 70.1762C29.4222 70.1762 27.6927 69.4969 26.4178 68.287C25.1423 67.0777 24.4262 65.4372 24.4262 63.7269V62.4639ZM29.8463 62.4639H51.5281V63.7269C51.5281 64.0736 51.3824 64.4062 51.1241 64.6517C50.8653 64.8967 50.5147 65.0349 50.1491 65.0349H31.2252C30.8597 65.0349 30.5091 64.8967 30.2502 64.6517C29.992 64.4062 29.8463 64.0736 29.8463 63.7269V62.4639ZM46.9873 42.167C46.5919 42.3897 46.2296 42.6945 45.9128 43.1233C43.6785 46.1459 40.8192 47.8099 38.8393 48.4849C37.5748 48.9156 36.527 48.9674 35.8993 48.8742C34.9106 48.728 34.0904 48.4232 33.4231 48.0037C33.2104 48.3189 33.0022 48.6219 32.798 48.9131C33.6806 52.2658 36.8808 54.7516 40.6872 54.7516C45.1746 54.7516 48.8177 51.2959 48.8177 47.0393C48.8177 45.1921 48.1308 43.496 46.9873 42.167ZM56.6704 15.8218C53.0377 17.8128 44.4344 22.5975 38.2005 26.6042C35.1357 28.5742 32.6308 30.2259 31.9823 31.2254C30.3296 33.7698 26.0737 42.1201 24.7637 47.4515C24.5842 48.1844 24.4262 49.5036 24.8639 49.5998C25.6763 49.7793 26.302 48.6762 27.1827 47.586C28.5955 45.8356 30.1865 43.3103 32.2314 40.0063C32.3323 39.8286 35.2404 35.1334 36.8515 32.6044C37.569 31.479 38.9251 30.4264 40.5623 29.6157C42.4869 28.6625 44.7862 27.993 46.1632 27.6654C47.6137 27.3199 49.0876 28.1565 49.4518 29.5324C49.8161 30.9089 48.9341 32.3064 47.483 32.6519C46.4 32.9098 44.5859 33.4231 43.071 34.1734C42.4141 34.4991 41.7786 34.8125 41.4905 35.2642C39.9275 37.7167 37.2301 42.0782 37.1715 42.1688C36.8541 42.6575 36.6343 43.1209 36.5595 43.5497C36.5497 43.6064 36.5465 43.6854 36.5458 43.7502L36.5562 43.7526C37.0206 43.5614 39.891 42.3145 41.4748 40.1717C43.1009 37.9715 45.1466 37.0627 47.5161 36.6018C49.1943 36.2754 51.0786 36.2335 53.0488 35.7923C55.8697 35.1611 58.3147 32.832 60.3376 30.3925C62.4912 27.7944 64.1303 24.9772 65.0416 23.2626L56.6704 15.8218ZM70.2048 20.8052L71.9558 19.2485L60.91 9.42982L59.1584 10.9871L70.1541 20.7607C70.171 20.7755 70.1879 20.7904 70.2048 20.8052Z" fill="#24BB83"/>
</svg>
