<svg width="88" height="84" viewBox="0 0 88 84" fill="none" xmlns="http://www.w3.org/2000/svg">
<g clip-path="url(#clip0_2_63)">
<path d="M76.299 62.4107V67.9396C76.299 73.6469 71.4209 78.2741 65.4042 78.2741C32.3028 78.2741 5.47145 52.8151 5.48235 21.4164C5.48507 15.7195 10.3551 11.1 16.3609 11.1H22.206C22.7916 11.1 23.3118 11.4565 23.497 11.9836L28.7592 26.9582C28.9526 27.5111 28.7347 28.1183 28.2227 28.4412L21.1492 32.9135C20.6153 33.2519 20.3865 33.8978 20.6153 34.4662C25.8394 47.3404 38.0934 58.9641 51.6657 63.9195C52.2649 64.1391 52.9459 63.9195 53.3027 63.4131L58.0174 56.7035C58.3579 56.2177 58.998 56.0111 59.5808 56.1945L75.3675 61.186C75.9232 61.3617 76.299 61.8552 76.299 62.4107Z" fill="#24BB83"/>
<path d="M73.5753 5.93274H46.3381C43.3284 5.93274 40.8907 8.24508 40.8907 11.1V31.7689C40.8907 34.6238 43.3284 36.9362 46.3381 36.9362H49.0618V47.2707L62.6804 36.9362H73.5753C76.585 36.9362 79.0227 34.6238 79.0227 31.7689V11.1C79.0227 8.24508 76.585 5.93274 73.5753 5.93274ZM68.1279 24.0181H62.6804V29.1853H57.233V24.0181H51.7856V18.8508H57.233V13.6836H62.6804V18.8508H68.1279V24.0181Z" fill="#24BB83"/>
</g>
<defs>
<clipPath id="clip0_2_63">
<rect width="87.159" height="82.6759" fill="white" transform="translate(0.034668 0.765503)"/>
</clipPath>
</defs>
</svg>
