<svg width="20" height="20" viewBox="0 0 20 20" fill="none" xmlns="http://www.w3.org/2000/svg">
<path d="M3.60841 2.55031C5.36552 0.917375 7.74866 0 10.2336 0C12.7185 0 15.1016 0.917375 16.8587 2.55031C18.6158 4.18325 19.603 6.39799 19.603 8.70731C19.603 11.0166 18.6158 13.2314 16.8587 14.8643L15.5815 16.0383C14.6399 16.8963 13.4186 18.0003 11.9165 19.3503C11.465 19.756 10.8616 19.9828 10.2336 19.9828C9.60556 19.9828 9.00213 19.756 8.55065 19.3503L4.79421 15.9543C4.32075 15.5233 3.92692 15.1603 3.60841 14.8643C2.73835 14.0558 2.04817 13.0959 1.57729 12.0395C1.1064 10.9831 0.864044 9.85079 0.864044 8.70731C0.864044 7.56384 1.1064 6.43157 1.57729 5.37514C2.04817 4.31872 2.73835 3.35884 3.60841 2.55031ZM15.7171 3.61031C14.9968 2.94103 14.1418 2.41014 13.2008 2.04795C12.2597 1.68577 11.2512 1.49937 10.2327 1.49942C9.21413 1.49947 8.20558 1.68595 7.26461 2.04822C6.32363 2.4105 5.46865 2.94147 4.74847 3.61081C4.0283 4.28016 3.45705 5.07478 3.06732 5.9493C2.67759 6.82382 2.47703 7.76111 2.47708 8.70767C2.47713 9.65422 2.67779 10.5915 3.06761 11.466C3.45743 12.3405 4.02877 13.135 4.74901 13.8043L6.35016 15.2723C7.23035 16.0733 8.33867 17.0733 9.67296 18.2723C9.82342 18.4073 10.0244 18.4828 10.2336 18.4828C10.4427 18.4828 10.6437 18.4073 10.7942 18.2723L14.4473 14.9723C14.9531 14.5113 15.376 14.1223 15.7171 13.8043C17.1713 12.4527 17.9883 10.6197 17.9883 8.70831C17.9883 6.79696 17.1713 4.96388 15.7171 3.61231M10.2336 5.98131C10.6578 5.98131 11.0778 6.05896 11.4697 6.20983C11.8617 6.36069 12.2178 6.58182 12.5177 6.86058C12.8177 7.13934 13.0556 7.47028 13.2179 7.8345C13.3803 8.19872 13.4638 8.58909 13.4638 8.98331C13.4638 9.37754 13.3803 9.76791 13.2179 10.1321C13.0556 10.4963 12.8177 10.8273 12.5177 11.106C12.2178 11.3848 11.8617 11.6059 11.4697 11.7568C11.0778 11.9077 10.6578 11.9853 10.2336 11.9853C9.38721 11.971 8.58072 11.6484 7.98764 11.0871C7.39455 10.5258 7.06226 9.7705 7.06226 8.98381C7.06226 8.19712 7.39455 7.44187 7.98764 6.88054C8.58072 6.31921 9.38721 5.99667 10.2336 5.98231M10.2336 7.48231C9.80493 7.48231 9.39384 7.64056 9.09074 7.92224C8.78764 8.20392 8.61737 8.58596 8.61737 8.98431C8.61737 9.38267 8.78764 9.76471 9.09074 10.0464C9.39384 10.3281 9.80493 10.4863 10.2336 10.4863C10.6549 10.4762 11.0552 10.3136 11.3494 10.0331C11.6435 9.75261 11.8081 9.37646 11.8081 8.98481C11.8081 8.59317 11.6435 8.21701 11.3494 7.93653C11.0552 7.65604 10.6549 7.49342 10.2336 7.48331" fill="white"/>
</svg>
