<svg width="50" height="41" viewBox="0 0 50 41" fill="none" xmlns="http://www.w3.org/2000/svg">
<path d="M45 0.0522461H5C2.25 0.0522461 0.025 2.30225 0.025 5.05225L0 35.0522C0 37.8022 2.25 40.0522 5 40.0522H45C47.75 40.0522 50 37.8022 50 35.0522V5.05225C50 2.30225 47.75 0.0522461 45 0.0522461ZM44 10.6772L26.325 21.7272C25.525 22.2272 24.475 22.2272 23.675 21.7272L6 10.6772C5.74932 10.5365 5.5298 10.3464 5.35472 10.1184C5.17965 9.89036 5.05266 9.62919 4.98144 9.35067C4.91022 9.07216 4.89626 8.78208 4.94039 8.49801C4.98453 8.21394 5.08584 7.94178 5.2382 7.698C5.39057 7.45422 5.59081 7.24389 5.82682 7.07973C6.06282 6.91558 6.32968 6.80102 6.61124 6.74299C6.8928 6.68496 7.18321 6.68466 7.46489 6.74212C7.74657 6.79957 8.01366 6.91358 8.25 7.07725L25 17.5522L41.75 7.07725C41.9863 6.91358 42.2534 6.79957 42.5351 6.74212C42.8168 6.68466 43.1072 6.68496 43.3888 6.74299C43.6703 6.80102 43.9372 6.91558 44.1732 7.07973C44.4092 7.24389 44.6094 7.45422 44.7618 7.698C44.9142 7.94178 45.0155 8.21394 45.0596 8.49801C45.1037 8.78208 45.0898 9.07216 45.0186 9.35067C44.9473 9.62919 44.8204 9.89036 44.6453 10.1184C44.4702 10.3464 44.2507 10.5365 44 10.6772Z" fill="#2A2354"/>
</svg>
