<svg width="20" height="21" viewBox="0 0 20 21" fill="none" xmlns="http://www.w3.org/2000/svg">
<g clip-path="url(#clip0_2_281)">
<path d="M10 20.0522C10 20.0522 3 10.9222 3 7.05225C3 6.13299 3.18106 5.22274 3.53284 4.37346C3.88463 3.52418 4.40024 2.75251 5.05025 2.1025C5.70026 1.45249 6.47194 0.936872 7.32122 0.585089C8.1705 0.233306 9.08075 0.0522461 10 0.0522461C10.9193 0.0522461 11.8295 0.233306 12.6788 0.585089C13.5281 0.936872 14.2997 1.45249 14.9497 2.1025C15.5998 2.75251 16.1154 3.52418 16.4672 4.37346C16.8189 5.22274 17 6.13299 17 7.05225C17 10.9222 10 20.0522 10 20.0522ZM10 9.05225C10.5304 9.05225 11.0391 8.84153 11.4142 8.46646C11.7893 8.09139 12 7.58268 12 7.05225C12 6.52181 11.7893 6.01311 11.4142 5.63803C11.0391 5.26296 10.5304 5.05225 10 5.05225C9.46957 5.05225 8.96086 5.26296 8.58579 5.63803C8.21071 6.01311 8 6.52181 8 7.05225C8 7.58268 8.21071 8.09139 8.58579 8.46646C8.96086 8.84153 9.46957 9.05225 10 9.05225Z" fill="#2A2354"/>
</g>
<defs>
<clipPath id="clip0_2_281">
<rect width="20" height="20" fill="white" transform="translate(0 0.0522461)"/>
</clipPath>
</defs>
</svg>
